<svg width="262" height="48" viewBox="0 0 262 48" fill="none" xmlns="http://www.w3.org/2000/svg">
<g filter="url(#filter0_d_6_7061)">
<mask id="path-1-outside-1_6_7061" maskUnits="userSpaceOnUse" x="4" y="0" width="254" height="40" fill="black">
<rect fill="white" x="4" width="254" height="40"/>
<path d="M6 38.2102L11.7955 3.30114H26.2159C28.8295 3.30114 31.0057 3.80682 32.7443 4.81818C34.483 5.82955 35.7159 7.24432 36.4432 9.0625C37.1705 10.8807 37.3352 12.9886 36.9375 15.3864C36.5511 17.8068 35.6818 19.9148 34.3295 21.7102C32.9886 23.5057 31.2614 24.8977 29.1477 25.8864C27.0341 26.875 24.6307 27.3693 21.9375 27.3693H13.0568L14.1648 20.7216H21.4943C22.7784 20.7216 23.8864 20.5 24.8182 20.0568C25.7614 19.6136 26.517 18.9943 27.0852 18.1989C27.6534 17.4034 28.0284 16.4659 28.2102 15.3864C28.3807 14.3068 28.3125 13.375 28.0057 12.5909C27.6989 11.7955 27.1477 11.1818 26.3523 10.75C25.5682 10.3182 24.5455 10.1023 23.2841 10.1023H19.125L14.4375 38.2102H6ZM36.3056 38.2102L40.6693 12.0284H49.0045L44.6409 38.2102H36.3056ZM45.4249 8.96023C44.2431 8.96023 43.2829 8.56818 42.5443 7.78409C41.8056 7 41.5159 6.0625 41.6749 4.97159C41.834 3.86932 42.3909 2.93182 43.3454 2.15909C44.2999 1.38636 45.3624 1 46.5329 1C47.7147 1 48.6636 1.38636 49.3795 2.15909C50.1068 2.93182 50.3909 3.86932 50.2318 4.97159C50.0954 6.0625 49.5499 7 48.5954 7.78409C47.6522 8.56818 46.5954 8.96023 45.4249 8.96023ZM61.1397 38.7045C58.3783 38.7045 56.0999 38.1364 54.3044 37C52.5203 35.8636 51.2703 34.2841 50.5544 32.2614C49.8385 30.2273 49.7078 27.875 50.1624 25.2045C50.5942 22.5227 51.509 20.1705 52.9067 18.1477C54.3044 16.1136 56.0885 14.5284 58.259 13.392C60.4294 12.2557 62.884 11.6875 65.6226 11.6875C68.0431 11.6875 70.0772 12.125 71.7249 13C73.384 13.875 74.5828 15.1136 75.3215 16.7159C76.0715 18.3068 76.2931 20.1761 75.9863 22.3239H68.1965C68.2647 20.9943 67.9919 19.9489 67.3783 19.1875C66.7647 18.4148 65.8726 18.0284 64.7022 18.0284C63.7135 18.0284 62.8044 18.3011 61.9749 18.8466C61.1567 19.3807 60.4578 20.1761 59.8783 21.233C59.3101 22.2784 58.901 23.5739 58.651 25.1193C58.401 26.6648 58.384 27.9716 58.5999 29.0398C58.8272 30.0966 59.2533 30.8977 59.8783 31.4432C60.5147 31.9773 61.3215 32.2443 62.2988 32.2443C63.0715 32.2443 63.7874 32.0795 64.4465 31.75C65.1056 31.4205 65.6794 30.9375 66.1681 30.3011C66.6567 29.6534 67.0374 28.8693 67.3101 27.9489H75.0828C74.6397 30.1193 73.7817 32.0114 72.509 33.625C71.2476 35.2273 69.651 36.4773 67.7192 37.375C65.7874 38.2614 63.5942 38.7045 61.1397 38.7045ZM87.5419 23.2784L85.0532 38.2102H76.718L82.5135 3.30114H90.576L88.3601 16.8352H88.6498C89.4907 15.2216 90.6612 13.9602 92.1612 13.0511C93.6612 12.142 95.3998 11.6875 97.3771 11.6875C99.1953 11.6875 100.718 12.0966 101.945 12.9148C103.173 13.7216 104.042 14.8636 104.553 16.3409C105.065 17.8182 105.156 19.5455 104.826 21.5227L102.031 38.2102H93.6953L96.218 23.1591C96.4453 21.7045 96.2578 20.5682 95.6555 19.75C95.0532 18.9318 94.0873 18.5227 92.7578 18.5227C91.8828 18.5227 91.076 18.7159 90.3373 19.1023C89.6101 19.4773 89.0021 20.017 88.5135 20.7216C88.0248 21.4261 87.701 22.2784 87.5419 23.2784ZM118.427 38.7045C115.666 38.7045 113.387 38.1364 111.592 37C109.808 35.8636 108.552 34.2784 107.825 32.2443C107.098 30.2102 106.955 27.8466 107.399 25.1534C107.842 22.4716 108.757 20.1193 110.143 18.0966C111.529 16.0739 113.302 14.5 115.461 13.375C117.62 12.25 120.069 11.6875 122.808 11.6875C125.558 11.6875 127.825 12.2557 129.609 13.392C131.404 14.5284 132.666 16.1136 133.393 18.1477C134.132 20.1818 134.279 22.5511 133.836 25.2557C133.393 27.9375 132.473 30.2898 131.075 32.3125C129.677 34.3239 127.904 35.892 125.757 37.017C123.609 38.142 121.166 38.7045 118.427 38.7045ZM119.365 32.4148C120.387 32.4148 121.302 32.108 122.109 31.4943C122.927 30.8807 123.615 30.0227 124.171 28.9205C124.728 27.8182 125.126 26.5398 125.365 25.0852C125.603 23.6534 125.626 22.3977 125.433 21.3182C125.251 20.2273 124.865 19.3807 124.274 18.7784C123.683 18.1648 122.882 17.858 121.87 17.858C120.848 17.858 119.927 18.1705 119.109 18.7955C118.291 19.4091 117.603 20.267 117.046 21.3693C116.501 22.4602 116.109 23.7386 115.87 25.2045C115.632 26.6364 115.603 27.892 115.785 28.9716C115.967 30.0511 116.359 30.8977 116.961 31.5114C117.563 32.1136 118.365 32.4148 119.365 32.4148ZM145.856 23.2784L143.368 38.2102H135.032L139.396 12.0284H147.322L146.538 16.8352H146.828C147.646 15.233 148.834 13.9773 150.39 13.0682C151.947 12.1477 153.697 11.6875 155.64 11.6875C157.47 11.6875 158.998 12.0966 160.226 12.9148C161.453 13.733 162.322 14.8807 162.834 16.358C163.345 17.8239 163.43 19.5455 163.089 21.5227L160.294 38.2102H151.959L154.464 23.1591C154.714 21.7159 154.538 20.5852 153.936 19.767C153.345 18.9375 152.379 18.5227 151.038 18.5227C150.163 18.5227 149.362 18.7159 148.635 19.1023C147.919 19.4773 147.316 20.017 146.828 20.7216C146.351 21.4261 146.027 22.2784 145.856 23.2784ZM177.534 38.2102H164.443L170.239 3.30114H182.937C186.483 3.30114 189.437 4.02273 191.801 5.46591C194.176 6.89773 195.852 8.95454 196.829 11.6364C197.818 14.3068 198.006 17.4886 197.392 21.1818C196.801 24.75 195.614 27.8068 193.829 30.3523C192.057 32.8977 189.784 34.8466 187.011 36.1989C184.239 37.5398 181.079 38.2102 177.534 38.2102ZM174.057 31.017H178.062C180.017 31.017 181.744 30.6648 183.244 29.9602C184.756 29.2443 186.006 28.1023 186.994 26.5341C187.983 24.9545 188.687 22.8807 189.108 20.3125C189.517 17.858 189.5 15.9205 189.057 14.5C188.625 13.0682 187.784 12.0455 186.534 11.4318C185.295 10.8068 183.676 10.4943 181.676 10.4943H177.483L174.057 31.017ZM210.716 38.7045C207.977 38.7045 205.705 38.1648 203.898 37.0852C202.102 35.9943 200.841 34.4432 200.114 32.4318C199.387 30.4091 199.256 28.0057 199.722 25.2216C200.176 22.517 201.102 20.1534 202.5 18.1307C203.909 16.0966 205.682 14.517 207.818 13.392C209.955 12.2557 212.335 11.6875 214.96 11.6875C216.824 11.6875 218.477 11.9773 219.921 12.5568C221.364 13.1364 222.557 14 223.5 15.1477C224.443 16.2841 225.085 17.6818 225.426 19.3409C225.767 21 225.756 22.9034 225.392 25.0511L225.068 27.1307H202.33L203.097 22.2898H218.097C218.233 21.4034 218.159 20.6136 217.875 19.9205C217.591 19.2273 217.131 18.6875 216.494 18.3011C215.869 17.9034 215.102 17.7045 214.193 17.7045C213.273 17.7045 212.409 17.9205 211.602 18.3523C210.807 18.7727 210.131 19.3409 209.574 20.0568C209.017 20.7727 208.654 21.5795 208.483 22.4773L207.58 27.4375C207.398 28.5398 207.449 29.483 207.733 30.267C208.017 31.0511 208.506 31.6534 209.199 32.0739C209.892 32.483 210.784 32.6875 211.875 32.6875C212.602 32.6875 213.284 32.5909 213.921 32.3977C214.557 32.1932 215.125 31.892 215.625 31.4943C216.137 31.0852 216.551 30.5909 216.869 30.0114L224.472 30.233C223.858 31.9489 222.909 33.4432 221.625 34.7159C220.341 35.9773 218.773 36.9602 216.921 37.6648C215.08 38.358 213.012 38.7045 210.716 38.7045ZM255.566 12.0284L242.219 38.2102H232.674L228.071 12.0284H236.543L238.384 30.0625H238.657L246.481 12.0284H255.566Z"/>
</mask>
<path d="M6 38.2102L11.7955 3.30114H26.2159C28.8295 3.30114 31.0057 3.80682 32.7443 4.81818C34.483 5.82955 35.7159 7.24432 36.4432 9.0625C37.1705 10.8807 37.3352 12.9886 36.9375 15.3864C36.5511 17.8068 35.6818 19.9148 34.3295 21.7102C32.9886 23.5057 31.2614 24.8977 29.1477 25.8864C27.0341 26.875 24.6307 27.3693 21.9375 27.3693H13.0568L14.1648 20.7216H21.4943C22.7784 20.7216 23.8864 20.5 24.8182 20.0568C25.7614 19.6136 26.517 18.9943 27.0852 18.1989C27.6534 17.4034 28.0284 16.4659 28.2102 15.3864C28.3807 14.3068 28.3125 13.375 28.0057 12.5909C27.6989 11.7955 27.1477 11.1818 26.3523 10.75C25.5682 10.3182 24.5455 10.1023 23.2841 10.1023H19.125L14.4375 38.2102H6ZM36.3056 38.2102L40.6693 12.0284H49.0045L44.6409 38.2102H36.3056ZM45.4249 8.96023C44.2431 8.96023 43.2829 8.56818 42.5443 7.78409C41.8056 7 41.5159 6.0625 41.6749 4.97159C41.834 3.86932 42.3909 2.93182 43.3454 2.15909C44.2999 1.38636 45.3624 1 46.5329 1C47.7147 1 48.6636 1.38636 49.3795 2.15909C50.1068 2.93182 50.3909 3.86932 50.2318 4.97159C50.0954 6.0625 49.5499 7 48.5954 7.78409C47.6522 8.56818 46.5954 8.96023 45.4249 8.96023ZM61.1397 38.7045C58.3783 38.7045 56.0999 38.1364 54.3044 37C52.5203 35.8636 51.2703 34.2841 50.5544 32.2614C49.8385 30.2273 49.7078 27.875 50.1624 25.2045C50.5942 22.5227 51.509 20.1705 52.9067 18.1477C54.3044 16.1136 56.0885 14.5284 58.259 13.392C60.4294 12.2557 62.884 11.6875 65.6226 11.6875C68.0431 11.6875 70.0772 12.125 71.7249 13C73.384 13.875 74.5828 15.1136 75.3215 16.7159C76.0715 18.3068 76.2931 20.1761 75.9863 22.3239H68.1965C68.2647 20.9943 67.9919 19.9489 67.3783 19.1875C66.7647 18.4148 65.8726 18.0284 64.7022 18.0284C63.7135 18.0284 62.8044 18.3011 61.9749 18.8466C61.1567 19.3807 60.4578 20.1761 59.8783 21.233C59.3101 22.2784 58.901 23.5739 58.651 25.1193C58.401 26.6648 58.384 27.9716 58.5999 29.0398C58.8272 30.0966 59.2533 30.8977 59.8783 31.4432C60.5147 31.9773 61.3215 32.2443 62.2988 32.2443C63.0715 32.2443 63.7874 32.0795 64.4465 31.75C65.1056 31.4205 65.6794 30.9375 66.1681 30.3011C66.6567 29.6534 67.0374 28.8693 67.3101 27.9489H75.0828C74.6397 30.1193 73.7817 32.0114 72.509 33.625C71.2476 35.2273 69.651 36.4773 67.7192 37.375C65.7874 38.2614 63.5942 38.7045 61.1397 38.7045ZM87.5419 23.2784L85.0532 38.2102H76.718L82.5135 3.30114H90.576L88.3601 16.8352H88.6498C89.4907 15.2216 90.6612 13.9602 92.1612 13.0511C93.6612 12.142 95.3998 11.6875 97.3771 11.6875C99.1953 11.6875 100.718 12.0966 101.945 12.9148C103.173 13.7216 104.042 14.8636 104.553 16.3409C105.065 17.8182 105.156 19.5455 104.826 21.5227L102.031 38.2102H93.6953L96.218 23.1591C96.4453 21.7045 96.2578 20.5682 95.6555 19.75C95.0532 18.9318 94.0873 18.5227 92.7578 18.5227C91.8828 18.5227 91.076 18.7159 90.3373 19.1023C89.6101 19.4773 89.0021 20.017 88.5135 20.7216C88.0248 21.4261 87.701 22.2784 87.5419 23.2784ZM118.427 38.7045C115.666 38.7045 113.387 38.1364 111.592 37C109.808 35.8636 108.552 34.2784 107.825 32.2443C107.098 30.2102 106.955 27.8466 107.399 25.1534C107.842 22.4716 108.757 20.1193 110.143 18.0966C111.529 16.0739 113.302 14.5 115.461 13.375C117.62 12.25 120.069 11.6875 122.808 11.6875C125.558 11.6875 127.825 12.2557 129.609 13.392C131.404 14.5284 132.666 16.1136 133.393 18.1477C134.132 20.1818 134.279 22.5511 133.836 25.2557C133.393 27.9375 132.473 30.2898 131.075 32.3125C129.677 34.3239 127.904 35.892 125.757 37.017C123.609 38.142 121.166 38.7045 118.427 38.7045ZM119.365 32.4148C120.387 32.4148 121.302 32.108 122.109 31.4943C122.927 30.8807 123.615 30.0227 124.171 28.9205C124.728 27.8182 125.126 26.5398 125.365 25.0852C125.603 23.6534 125.626 22.3977 125.433 21.3182C125.251 20.2273 124.865 19.3807 124.274 18.7784C123.683 18.1648 122.882 17.858 121.87 17.858C120.848 17.858 119.927 18.1705 119.109 18.7955C118.291 19.4091 117.603 20.267 117.046 21.3693C116.501 22.4602 116.109 23.7386 115.87 25.2045C115.632 26.6364 115.603 27.892 115.785 28.9716C115.967 30.0511 116.359 30.8977 116.961 31.5114C117.563 32.1136 118.365 32.4148 119.365 32.4148ZM145.856 23.2784L143.368 38.2102H135.032L139.396 12.0284H147.322L146.538 16.8352H146.828C147.646 15.233 148.834 13.9773 150.39 13.0682C151.947 12.1477 153.697 11.6875 155.64 11.6875C157.47 11.6875 158.998 12.0966 160.226 12.9148C161.453 13.733 162.322 14.8807 162.834 16.358C163.345 17.8239 163.43 19.5455 163.089 21.5227L160.294 38.2102H151.959L154.464 23.1591C154.714 21.7159 154.538 20.5852 153.936 19.767C153.345 18.9375 152.379 18.5227 151.038 18.5227C150.163 18.5227 149.362 18.7159 148.635 19.1023C147.919 19.4773 147.316 20.017 146.828 20.7216C146.351 21.4261 146.027 22.2784 145.856 23.2784ZM177.534 38.2102H164.443L170.239 3.30114H182.937C186.483 3.30114 189.437 4.02273 191.801 5.46591C194.176 6.89773 195.852 8.95454 196.829 11.6364C197.818 14.3068 198.006 17.4886 197.392 21.1818C196.801 24.75 195.614 27.8068 193.829 30.3523C192.057 32.8977 189.784 34.8466 187.011 36.1989C184.239 37.5398 181.079 38.2102 177.534 38.2102ZM174.057 31.017H178.062C180.017 31.017 181.744 30.6648 183.244 29.9602C184.756 29.2443 186.006 28.1023 186.994 26.5341C187.983 24.9545 188.687 22.8807 189.108 20.3125C189.517 17.858 189.5 15.9205 189.057 14.5C188.625 13.0682 187.784 12.0455 186.534 11.4318C185.295 10.8068 183.676 10.4943 181.676 10.4943H177.483L174.057 31.017ZM210.716 38.7045C207.977 38.7045 205.705 38.1648 203.898 37.0852C202.102 35.9943 200.841 34.4432 200.114 32.4318C199.387 30.4091 199.256 28.0057 199.722 25.2216C200.176 22.517 201.102 20.1534 202.5 18.1307C203.909 16.0966 205.682 14.517 207.818 13.392C209.955 12.2557 212.335 11.6875 214.96 11.6875C216.824 11.6875 218.477 11.9773 219.921 12.5568C221.364 13.1364 222.557 14 223.5 15.1477C224.443 16.2841 225.085 17.6818 225.426 19.3409C225.767 21 225.756 22.9034 225.392 25.0511L225.068 27.1307H202.33L203.097 22.2898H218.097C218.233 21.4034 218.159 20.6136 217.875 19.9205C217.591 19.2273 217.131 18.6875 216.494 18.3011C215.869 17.9034 215.102 17.7045 214.193 17.7045C213.273 17.7045 212.409 17.9205 211.602 18.3523C210.807 18.7727 210.131 19.3409 209.574 20.0568C209.017 20.7727 208.654 21.5795 208.483 22.4773L207.58 27.4375C207.398 28.5398 207.449 29.483 207.733 30.267C208.017 31.0511 208.506 31.6534 209.199 32.0739C209.892 32.483 210.784 32.6875 211.875 32.6875C212.602 32.6875 213.284 32.5909 213.921 32.3977C214.557 32.1932 215.125 31.892 215.625 31.4943C216.137 31.0852 216.551 30.5909 216.869 30.0114L224.472 30.233C223.858 31.9489 222.909 33.4432 221.625 34.7159C220.341 35.9773 218.773 36.9602 216.921 37.6648C215.08 38.358 213.012 38.7045 210.716 38.7045ZM255.566 12.0284L242.219 38.2102H232.674L228.071 12.0284H236.543L238.384 30.0625H238.657L246.481 12.0284H255.566Z" fill="white"/>
<path d="M6 38.2102L5.0135 38.0465L4.8203 39.2102H6V38.2102ZM11.7955 3.30114V2.30114H10.9478L10.809 3.13736L11.7955 3.30114ZM36.4432 9.0625L37.3717 8.69111V8.69111L36.4432 9.0625ZM36.9375 15.3864L35.951 15.2227L35.95 15.2287L36.9375 15.3864ZM34.3295 21.7102L33.5308 21.1086L33.5283 21.1119L34.3295 21.7102ZM29.1477 25.8864L29.5714 26.7922L29.1477 25.8864ZM13.0568 27.3693L12.0704 27.2049L11.8764 28.3693H13.0568V27.3693ZM14.1648 20.7216V19.7216H13.3176L13.1784 20.5572L14.1648 20.7216ZM24.8182 20.0568L24.3929 19.1517L24.3887 19.1538L24.8182 20.0568ZM27.0852 18.1989L26.2715 17.6176H26.2715L27.0852 18.1989ZM28.2102 15.3864L29.1964 15.5525L29.198 15.5423L28.2102 15.3864ZM28.0057 12.5909L27.0727 12.9508L27.0744 12.9553L28.0057 12.5909ZM26.3523 10.75L25.8699 11.626L25.8752 11.6289L26.3523 10.75ZM19.125 10.1023V9.10227H18.278L18.1386 9.93778L19.125 10.1023ZM14.4375 38.2102V39.2102H15.2845L15.4239 38.3747L14.4375 38.2102ZM36.3056 38.2102L35.3192 38.0458L35.1252 39.2102H36.3056V38.2102ZM40.6693 12.0284V11.0284H39.8221L39.6829 11.864L40.6693 12.0284ZM49.0045 12.0284L49.9909 12.1928L50.185 11.0284H49.0045V12.0284ZM44.6409 38.2102V39.2102H45.488L45.6272 38.3746L44.6409 38.2102ZM42.5443 7.78409L43.2722 7.0984V7.09839L42.5443 7.78409ZM41.6749 4.97159L42.6645 5.1159L42.6647 5.11444L41.6749 4.97159ZM43.3454 2.15909L42.7162 1.38184V1.38184L43.3454 2.15909ZM49.3795 2.15909L48.6459 2.83873L48.6513 2.84445L49.3795 2.15909ZM50.2318 4.97159L49.242 4.82874L49.2407 4.83814L49.2395 4.84755L50.2318 4.97159ZM48.5954 7.78409L47.9606 7.01135L47.9561 7.01511L48.5954 7.78409ZM54.3044 37L53.7672 37.8434L53.7696 37.845L54.3044 37ZM50.5544 32.2614L49.6111 32.5934L49.6117 32.595L50.5544 32.2614ZM50.1624 25.2045L51.1483 25.3724L51.1497 25.3635L50.1624 25.2045ZM52.9067 18.1477L53.7294 18.7162L53.7309 18.7141L52.9067 18.1477ZM58.259 13.392L57.7951 12.5061L58.259 13.392ZM71.7249 13L71.2559 13.8832L71.2584 13.8845L71.7249 13ZM75.3215 16.7159L74.4133 17.1346L74.417 17.1423L75.3215 16.7159ZM75.9863 22.3239V23.3239H76.8535L76.9762 22.4653L75.9863 22.3239ZM68.1965 22.3239L67.1978 22.2726L67.1439 23.3239H68.1965V22.3239ZM67.3783 19.1875L66.5952 19.8094L66.5997 19.815L67.3783 19.1875ZM61.9749 18.8466L62.5215 19.684L62.5243 19.6821L61.9749 18.8466ZM59.8783 21.233L59.0015 20.7521L58.9997 20.7554L59.8783 21.233ZM58.651 25.1193L59.6382 25.279L58.651 25.1193ZM58.5999 29.0398L57.6196 29.2379L57.6222 29.25L58.5999 29.0398ZM59.8783 31.4432L59.2208 32.1966L59.228 32.203L59.2354 32.2092L59.8783 31.4432ZM64.4465 31.75L63.9993 30.8556L64.4465 31.75ZM66.1681 30.3011L66.9613 30.9102L66.9664 30.9034L66.1681 30.3011ZM67.3101 27.9489V26.9489H66.5634L66.3513 27.6648L67.3101 27.9489ZM75.0828 27.9489L76.0626 28.1489L76.3077 26.9489H75.0828V27.9489ZM72.509 33.625L71.7238 33.0057L71.7232 33.0064L72.509 33.625ZM67.7192 37.375L68.1362 38.2839L68.1406 38.2819L67.7192 37.375ZM87.5419 23.2784L88.5283 23.4428L88.5295 23.4355L87.5419 23.2784ZM85.0532 38.2102V39.2102H85.9004L86.0396 38.3746L85.0532 38.2102ZM76.718 38.2102L75.7315 38.0465L75.5383 39.2102H76.718V38.2102ZM82.5135 3.30114V2.30114H81.6658L81.527 3.13736L82.5135 3.30114ZM90.576 3.30114L91.5628 3.46271L91.753 2.30114H90.576V3.30114ZM88.3601 16.8352L87.3732 16.6737L87.183 17.8352H88.3601V16.8352ZM88.6498 16.8352V17.8352H89.2563L89.5366 17.2974L88.6498 16.8352ZM92.1612 13.0511L91.6429 12.1959H91.6429L92.1612 13.0511ZM101.945 12.9148L101.391 13.7468L101.396 13.7504L101.945 12.9148ZM104.553 16.3409L105.498 16.0138V16.0138L104.553 16.3409ZM104.826 21.5227L105.812 21.6879L105.812 21.6871L104.826 21.5227ZM102.031 38.2102V39.2102H102.877L103.017 38.3754L102.031 38.2102ZM93.6953 38.2102L92.709 38.0449L92.5137 39.2102H93.6953V38.2102ZM96.218 23.1591L97.2043 23.3244L97.206 23.3135L96.218 23.1591ZM95.6555 19.75L94.8502 20.3428L95.6555 19.75ZM90.3373 19.1023L90.7956 19.9911L90.8008 19.9884L90.3373 19.1023ZM88.5135 20.7216L89.3352 21.2915V21.2915L88.5135 20.7216ZM111.592 37L111.055 37.8434L111.057 37.845L111.592 37ZM107.825 32.2443L106.883 32.581L107.825 32.2443ZM107.399 25.1534L106.412 24.9904L106.412 24.991L107.399 25.1534ZM110.143 18.0966L110.968 18.6619V18.6619L110.143 18.0966ZM115.461 13.375L115.923 14.2618L115.461 13.375ZM129.609 13.392L129.072 14.2355L129.074 14.237L129.609 13.392ZM133.393 18.1477L132.451 18.4844L132.453 18.489L133.393 18.1477ZM133.836 25.2557L134.823 25.4187L134.823 25.4174L133.836 25.2557ZM131.075 32.3125L131.896 32.8832L131.897 32.881L131.075 32.3125ZM125.757 37.017L126.221 37.9029L125.757 37.017ZM122.109 31.4943L121.509 30.6943L121.504 30.6984L122.109 31.4943ZM124.171 28.9205L125.064 29.3713V29.3713L124.171 28.9205ZM125.365 25.0852L124.378 24.9208L124.378 24.9233L125.365 25.0852ZM125.433 21.3182L124.446 21.4826L124.448 21.4943L125.433 21.3182ZM124.274 18.7784L123.553 19.4721L123.56 19.4787L124.274 18.7784ZM119.109 18.7955L119.709 19.5955L119.716 19.5901L119.109 18.7955ZM117.046 21.3693L116.154 20.9184L116.152 20.9221L117.046 21.3693ZM115.87 25.2045L116.857 25.3689L116.857 25.3652L115.87 25.2045ZM115.785 28.9716L116.771 28.8055V28.8055L115.785 28.9716ZM116.961 31.5114L116.247 32.2119L116.254 32.2185L116.961 31.5114ZM145.856 23.2784L144.87 23.1104L144.87 23.114L145.856 23.2784ZM143.368 38.2102V39.2102H144.215L144.354 38.3746L143.368 38.2102ZM135.032 38.2102L134.046 38.0458L133.852 39.2102H135.032V38.2102ZM139.396 12.0284V11.0284H138.549L138.41 11.864L139.396 12.0284ZM147.322 12.0284L148.309 12.1894L148.498 11.0284H147.322V12.0284ZM146.538 16.8352L145.551 16.6742L145.362 17.8352H146.538V16.8352ZM146.828 16.8352V17.8352H147.44L147.718 17.29L146.828 16.8352ZM150.39 13.0682L150.895 13.9317L150.899 13.929L150.39 13.0682ZM160.226 12.9148L159.671 13.7468L160.226 12.9148ZM162.834 16.358L161.889 16.6851L161.889 16.6873L162.834 16.358ZM163.089 21.5227L162.104 21.3528L162.103 21.3575L163.089 21.5227ZM160.294 38.2102V39.2102H161.14L161.28 38.3754L160.294 38.2102ZM151.959 38.2102L150.972 38.046L150.778 39.2102H151.959V38.2102ZM154.464 23.1591L153.479 22.9884L153.478 22.9949L154.464 23.1591ZM153.936 19.767L153.121 20.3472L153.126 20.3536L153.13 20.3599L153.936 19.767ZM148.635 19.1023L149.099 19.9881L149.104 19.9854L148.635 19.1023ZM146.828 20.7216L146.006 20.1517L146 20.1607L146.828 20.7216ZM164.443 38.2102L163.457 38.0465L163.263 39.2102H164.443V38.2102ZM170.239 3.30114V2.30114H169.391L169.252 3.13736L170.239 3.30114ZM191.801 5.46591L191.28 6.31941L191.285 6.32231L191.801 5.46591ZM196.829 11.6364L195.89 11.9787L195.892 11.9835L196.829 11.6364ZM197.392 21.1818L196.406 21.0179L196.405 21.0184L197.392 21.1818ZM193.829 30.3523L193.011 29.7783L193.009 29.7808L193.829 30.3523ZM187.011 36.1989L187.447 37.0991L187.45 37.0977L187.011 36.1989ZM174.057 31.017L173.07 30.8524L172.876 32.017H174.057V31.017ZM183.244 29.9602L183.669 30.8654L183.672 30.864L183.244 29.9602ZM186.994 26.5341L187.84 27.0674L187.842 27.0646L186.994 26.5341ZM189.108 20.3125L188.122 20.1481L188.121 20.1509L189.108 20.3125ZM189.057 14.5L188.099 14.7888L188.102 14.7978L189.057 14.5ZM186.534 11.4318L186.084 12.3247L186.093 12.3295L186.534 11.4318ZM177.483 10.4943V9.49432H176.636L176.497 10.3297L177.483 10.4943ZM203.898 37.0852L203.379 37.9399L203.385 37.9437L203.898 37.0852ZM200.114 32.4318L199.173 32.7702L199.173 32.7719L200.114 32.4318ZM199.722 25.2216L198.736 25.0558L198.735 25.0565L199.722 25.2216ZM202.5 18.1307L201.678 17.5612L201.677 17.5622L202.5 18.1307ZM207.818 13.392L208.284 14.2769L208.288 14.2749L207.818 13.392ZM219.921 12.5568L220.293 11.6288L219.921 12.5568ZM223.5 15.1477L222.728 15.7826L222.731 15.7864L223.5 15.1477ZM225.426 19.3409L226.406 19.1396V19.1396L225.426 19.3409ZM225.392 25.0511L224.406 24.8842L224.404 24.8973L225.392 25.0511ZM225.068 27.1307V28.1307H225.925L226.056 27.2846L225.068 27.1307ZM202.33 27.1307L201.342 26.9742L201.159 28.1307H202.33V27.1307ZM203.097 22.2898V21.2898H202.243L202.109 22.1333L203.097 22.2898ZM218.097 22.2898V23.2898H218.955L219.085 22.4418L218.097 22.2898ZM216.494 18.3011L215.958 19.1448L215.967 19.1505L215.976 19.1559L216.494 18.3011ZM211.602 18.3523L212.07 19.2364L212.074 19.2339L211.602 18.3523ZM208.483 22.4773L207.501 22.2907L207.499 22.2981L208.483 22.4773ZM207.58 27.4375L206.596 27.2583L206.594 27.2665L206.593 27.2747L207.58 27.4375ZM207.733 30.267L206.793 30.6077L207.733 30.267ZM209.199 32.0739L208.68 32.9289L208.691 32.9351L209.199 32.0739ZM213.921 32.3977L214.211 33.3546L214.219 33.3522L214.227 33.3498L213.921 32.3977ZM215.625 31.4943L216.248 32.2769L216.25 32.2752L215.625 31.4943ZM216.869 30.0114L216.899 29.0118L216.287 28.994L215.993 29.5301L216.869 30.0114ZM224.472 30.233L225.413 30.5697L225.877 29.2735L224.501 29.2334L224.472 30.233ZM221.625 34.7159L222.326 35.4293L222.329 35.4262L221.625 34.7159ZM216.921 37.6648L217.273 38.6006L217.276 38.5994L216.921 37.6648ZM255.566 12.0284L256.457 12.4826L257.198 11.0284H255.566V12.0284ZM242.219 38.2102V39.2102H242.832L243.11 38.6644L242.219 38.2102ZM232.674 38.2102L231.689 38.3834L231.834 39.2102H232.674V38.2102ZM228.071 12.0284V11.0284H226.88L227.087 12.2015L228.071 12.0284ZM236.543 12.0284L237.538 11.9269L237.446 11.0284H236.543V12.0284ZM238.384 30.0625L237.389 30.1641L237.481 31.0625H238.384V30.0625ZM238.657 30.0625V31.0625H239.313L239.574 30.4605L238.657 30.0625ZM246.481 12.0284V11.0284H245.824L245.563 11.6304L246.481 12.0284ZM6.9865 38.374L12.782 3.46491L10.809 3.13736L5.0135 38.0465L6.9865 38.374ZM11.7955 4.30114H26.2159V2.30114H11.7955V4.30114ZM26.2159 4.30114C28.7045 4.30114 30.6947 4.78281 32.2415 5.68257L33.2471 3.95379C31.3166 2.83082 28.9546 2.30114 26.2159 2.30114V4.30114ZM32.2415 5.68257C33.7929 6.585 34.8727 7.82894 35.5147 9.43389L37.3717 8.69111C36.5591 6.6597 35.173 5.07409 33.2471 3.95379L32.2415 5.68257ZM35.5147 9.43389C36.1595 11.0458 36.326 12.962 35.951 15.2227L37.924 15.55C38.3445 13.0152 38.1814 10.7155 37.3717 8.69111L35.5147 9.43389ZM35.95 15.2287C35.587 17.5029 34.7761 19.4551 33.5308 21.1086L35.1283 22.3118C36.5875 20.3745 37.5153 18.1107 37.925 15.544L35.95 15.2287ZM33.5283 21.1119C32.2901 22.7698 30.6948 24.0587 28.724 24.9806L29.5714 26.7922C31.8279 25.7367 33.6871 24.2416 35.1308 22.3086L33.5283 21.1119ZM28.724 24.9806C26.762 25.8983 24.5068 26.3693 21.9375 26.3693V28.3693C24.7546 28.3693 27.3062 27.8517 29.5714 26.7922L28.724 24.9806ZM21.9375 26.3693H13.0568V28.3693H21.9375V26.3693ZM14.0432 27.5337L15.1512 20.886L13.1784 20.5572L12.0704 27.2049L14.0432 27.5337ZM14.1648 21.7216H21.4943V19.7216H14.1648V21.7216ZM21.4943 21.7216C22.8916 21.7216 24.153 21.4805 25.2477 20.9599L24.3887 19.1538C23.6197 19.5195 22.6652 19.7216 21.4943 19.7216V21.7216ZM25.2435 20.9619C26.3311 20.4508 27.2246 19.7242 27.899 18.7801L26.2715 17.6176C25.8095 18.2644 25.1916 18.7765 24.3929 19.1518L25.2435 20.9619ZM27.899 18.7801C28.5654 17.847 28.9924 16.7636 29.1963 15.5524L27.2241 15.2203C27.0645 16.1683 26.7414 16.9598 26.2715 17.6176L27.899 18.7801ZM29.198 15.5423C29.3881 14.3384 29.325 13.2182 28.9369 12.2265L27.0744 12.9553C27.3 13.5318 27.3733 14.2752 27.2225 15.2304L29.198 15.5423ZM28.9387 12.231C28.5408 11.1996 27.8197 10.4087 26.8294 9.87115L25.8752 11.6289C26.4758 11.9549 26.8569 12.3913 27.0727 12.9508L28.9387 12.231ZM26.8347 9.87405C25.8547 9.33434 24.649 9.10227 23.2841 9.10227V11.1023C24.4419 11.1023 25.2817 11.302 25.8699 11.6259L26.8347 9.87405ZM23.2841 9.10227H19.125V11.1023H23.2841V9.10227ZM18.1386 9.93778L13.4511 38.0457L15.4239 38.3747L20.1114 10.2668L18.1386 9.93778ZM14.4375 37.2102H6V39.2102H14.4375V37.2102ZM37.292 38.3746L41.6557 12.1928L39.6829 11.864L35.3192 38.0458L37.292 38.3746ZM40.6693 13.0284H49.0045V11.0284H40.6693V13.0284ZM48.0181 11.864L43.6545 38.0458L45.6272 38.3746L49.9909 12.1928L48.0181 11.864ZM44.6409 37.2102H36.3056V39.2102H44.6409V37.2102ZM45.4249 7.96023C44.489 7.96023 43.8024 7.66126 43.2722 7.0984L41.8164 8.46978C42.7634 9.47511 43.9973 9.96023 45.4249 9.96023V7.96023ZM43.2722 7.09839C42.7485 6.54252 42.5482 5.91295 42.6645 5.1159L40.6854 4.82728C40.4835 6.21205 40.8627 7.45747 41.8164 8.46978L43.2722 7.09839ZM42.6647 5.11444C42.784 4.28797 43.194 3.56823 43.9746 2.93633L42.7162 1.38184C41.5877 2.29541 40.8841 3.45067 40.6852 4.82874L42.6647 5.11444ZM43.9746 2.93633C44.7606 2.30006 45.6034 2 46.5329 2V0C45.1215 0 43.8393 0.472662 42.7162 1.38184L43.9746 2.93633ZM46.5329 2C47.4738 2 48.1434 2.29626 48.6459 2.83871L50.1131 1.47946C49.1838 0.476466 47.9556 0 46.5329 0V2ZM48.6513 2.84445C49.1581 3.38295 49.3601 4.01069 49.242 4.82874L51.2215 5.11444C51.4216 3.72794 51.0554 2.48068 50.1077 1.47373L48.6513 2.84445ZM49.2395 4.84755C49.1389 5.65236 48.7439 6.36801 47.9607 7.01136L49.2301 8.55682C50.356 7.63199 51.0519 6.47264 51.224 5.09562L49.2395 4.84755ZM47.9561 7.01511C47.1832 7.65766 46.35 7.96023 45.4249 7.96023V9.96023C46.8408 9.96023 48.1212 9.4787 49.2347 8.55307L47.9561 7.01511ZM61.1397 37.7045C58.5119 37.7045 56.4333 37.1639 54.8392 36.155L53.7696 37.845C55.7665 39.1088 58.2447 39.7045 61.1397 39.7045V37.7045ZM54.8417 36.1566C53.2487 35.142 52.1397 33.7433 51.4971 31.9277L49.6117 32.595C50.401 34.8249 51.7919 36.5853 53.7672 37.8434L54.8417 36.1566ZM51.4977 31.9294C50.8509 30.0916 50.715 27.9175 51.1482 25.3723L49.1766 25.0367C48.7007 27.8325 48.8261 30.3629 49.6112 32.5934L51.4977 31.9294ZM51.1497 25.3635C51.5603 22.8132 52.4249 20.604 53.7294 18.7162L52.084 17.5792C50.5931 19.7369 49.6281 22.2323 49.1751 25.0456L51.1497 25.3635ZM53.7309 18.7141C55.037 16.8132 56.6978 15.3382 58.7228 14.278L57.7951 12.5061C55.4792 13.7186 53.5718 15.414 52.0825 17.5814L53.7309 18.7141ZM58.7228 14.278C60.734 13.225 63.0262 12.6875 65.6226 12.6875V10.6875C62.7417 10.6875 60.1249 11.2864 57.7951 12.5061L58.7228 14.278ZM65.6226 12.6875C67.9267 12.6875 69.7892 13.1043 71.2559 13.8832L72.1939 12.1168C70.3652 11.1457 68.1595 10.6875 65.6226 10.6875V12.6875ZM71.2584 13.8845C72.7362 14.6639 73.7727 15.7449 74.4133 17.1346L76.2296 16.2973C75.393 14.4823 74.0318 13.0861 72.1914 12.1155L71.2584 13.8845ZM74.417 17.1423C75.066 18.519 75.282 20.1829 74.9963 22.1824L76.9762 22.4653C77.3042 20.1694 77.077 18.0946 76.226 16.2895L74.417 17.1423ZM75.9863 21.3239H68.1965V23.3239H75.9863V21.3239ZM69.1952 22.3751C69.2714 20.8895 68.9731 19.5727 68.1569 18.56L66.5997 19.815C67.0107 20.325 67.258 21.0992 67.1978 22.2726L69.1952 22.3751ZM68.1614 18.5656C67.3218 17.5084 66.1142 17.0284 64.7022 17.0284V19.0284C65.631 19.0284 66.2075 19.3211 66.5952 19.8094L68.1614 18.5656ZM64.7022 17.0284C63.5174 17.0284 62.4174 17.3588 61.4255 18.011L62.5243 19.6821C63.1914 19.2435 63.9097 19.0284 64.7022 19.0284V17.0284ZM61.4283 18.0092C60.4438 18.6518 59.6419 19.5843 59.0015 20.7521L60.7551 21.7138C61.2738 20.768 61.8696 20.1095 62.5215 19.684L61.4283 18.0092ZM58.9997 20.7554C58.3637 21.9257 57.9265 23.336 57.6639 24.9596L59.6382 25.279C59.8755 23.8117 60.2566 22.6311 60.7569 21.7105L58.9997 20.7554ZM57.6639 24.9596C57.4023 26.5763 57.372 28.0124 57.6197 29.2379L59.5801 28.8417C59.3959 27.9307 59.3997 26.7532 59.6382 25.279L57.6639 24.9596ZM57.6222 29.25C57.8811 30.4537 58.3901 31.4717 59.2208 32.1966L60.5358 30.6898C60.1165 30.3238 59.7732 29.7394 59.5775 28.8295L57.6222 29.25ZM59.2354 32.2092C60.0826 32.9202 61.1299 33.2443 62.2988 33.2443V31.2443C61.5131 31.2443 60.9467 31.0343 60.5212 30.6772L59.2354 32.2092ZM62.2988 33.2443C63.219 33.2443 64.089 33.0468 64.8937 32.6444L63.9993 30.8556C63.4858 31.1123 62.924 31.2443 62.2988 31.2443V33.2443ZM64.8937 32.6444C65.6999 32.2413 66.3887 31.6558 66.9612 30.9102L65.3749 29.6921C64.9702 30.2192 64.5112 30.5996 63.9993 30.8556L64.8937 32.6444ZM66.9664 30.9034C67.539 30.1443 67.9683 29.2476 68.2689 28.233L66.3513 27.6648C66.1065 28.491 65.7744 29.1625 65.3698 29.6989L66.9664 30.9034ZM67.3101 28.9489H75.0828V26.9489H67.3101V28.9489ZM74.1031 27.7488C73.6886 29.7784 72.8924 31.5241 71.7238 33.0057L73.2941 34.2443C74.671 32.4986 75.5907 30.4602 76.0626 28.1489L74.1031 27.7488ZM71.7232 33.0064C70.5634 34.4798 69.0938 35.6335 67.2978 36.4681L68.1406 38.2819C70.2083 37.321 71.9319 35.9748 73.2947 34.2436L71.7232 33.0064ZM67.3022 36.4661C65.52 37.2838 63.4725 37.7045 61.1397 37.7045V39.7045C63.716 39.7045 66.0548 39.2389 68.1362 38.2839L67.3022 36.4661ZM86.5555 23.114L84.0668 38.0458L86.0396 38.3746L88.5283 23.4428L86.5555 23.114ZM85.0532 37.2102H76.718V39.2102H85.0532V37.2102ZM77.7045 38.374L83.5 3.46491L81.527 3.13736L75.7315 38.0465L77.7045 38.374ZM82.5135 4.30114H90.576V2.30114H82.5135V4.30114ZM89.5891 3.13956L87.3732 16.6737L89.3469 16.9968L91.5628 3.46271L89.5891 3.13956ZM88.3601 17.8352H88.6498V15.8352H88.3601V17.8352ZM89.5366 17.2974C90.2963 15.8396 91.342 14.7169 92.6795 13.9063L91.6429 12.1959C89.9804 13.2035 88.6852 14.6035 87.763 16.3731L89.5366 17.2974ZM92.6795 13.9063C94.004 13.1036 95.5588 12.6875 97.3771 12.6875V10.6875C95.2409 10.6875 93.3184 11.1805 91.6429 12.1959L92.6795 13.9063ZM97.3771 12.6875C99.0441 12.6875 100.362 13.0613 101.391 13.7468L102.5 12.0827C101.074 11.1319 99.3465 10.6875 97.3771 10.6875V12.6875ZM101.396 13.7504C102.427 14.4279 103.164 15.3849 103.608 16.668L105.498 16.0138C104.92 14.3424 103.919 13.0153 102.495 12.0792L101.396 13.7504ZM103.608 16.668C104.052 17.9491 104.149 19.5004 103.84 21.3583L105.812 21.6871C106.162 19.5905 106.077 17.6873 105.498 16.0138L103.608 16.668ZM103.84 21.3575L101.044 38.045L103.017 38.3754L105.812 21.6879L103.84 21.3575ZM102.031 37.2102H93.6953V39.2102H102.031V37.2102ZM94.6815 38.3755L97.2043 23.3244L95.2318 22.9938L92.709 38.0449L94.6815 38.3755ZM97.206 23.3135C97.4559 21.7141 97.2805 20.2706 96.4609 19.1572L94.8502 20.3428C95.2351 20.8657 95.4347 21.695 95.23 23.0047L97.206 23.3135ZM96.4609 19.1572C95.6144 18.0072 94.2977 17.5227 92.7578 17.5227V19.5227C93.8769 19.5227 94.4921 19.8564 94.8502 20.3428L96.4609 19.1572ZM92.7578 17.5227C91.7296 17.5227 90.7627 17.7512 89.8738 18.2162L90.8008 19.9884C91.3893 19.6806 92.0359 19.5227 92.7578 19.5227V17.5227ZM89.879 18.2135C88.9993 18.6671 88.269 19.3194 87.6918 20.1517L89.3352 21.2915C89.7352 20.7147 90.2208 20.2875 90.7956 19.9911L89.879 18.2135ZM87.6918 20.1517C87.1034 21 86.7327 21.9996 86.5543 23.1213L88.5295 23.4355C88.6692 22.5572 88.9463 21.8523 89.3352 21.2915L87.6918 20.1517ZM118.427 37.7045C115.799 37.7045 113.721 37.1639 112.127 36.155L111.057 37.845C113.054 39.1088 115.532 39.7045 118.427 39.7045V37.7045ZM112.129 36.1566C110.537 35.1422 109.421 33.7374 108.766 31.9076L106.883 32.581C107.683 34.8194 109.079 36.585 111.055 37.8434L112.129 36.1566ZM108.766 31.9076C108.109 30.0702 107.963 27.8848 108.385 25.3158L106.412 24.991C105.948 27.8084 106.086 30.3503 106.883 32.581L108.766 31.9076ZM108.385 25.3165C108.807 22.7632 109.673 20.5515 110.968 18.6619L109.318 17.5312C107.84 19.6872 106.876 22.18 106.412 24.9904L108.385 25.3165ZM110.968 18.6619C112.262 16.7735 113.911 15.3105 115.923 14.2618L114.999 12.4882C112.693 13.6895 110.796 15.3742 109.318 17.5312L110.968 18.6619ZM115.923 14.2618C117.923 13.22 120.21 12.6875 122.808 12.6875V10.6875C119.929 10.6875 117.318 11.28 114.999 12.4882L115.923 14.2618ZM122.808 12.6875C125.424 12.6875 127.49 13.2279 129.072 14.2355L130.146 12.5486C128.16 11.2835 125.692 10.6875 122.808 10.6875V12.6875ZM129.074 14.237C130.678 15.2519 131.798 16.6566 132.451 18.4844L134.335 17.8111C133.534 15.5707 132.131 13.8049 130.144 12.5471L129.074 14.237ZM132.453 18.489C133.12 20.3248 133.272 22.5142 132.849 25.094L134.823 25.4174C135.287 22.5881 135.144 20.0388 134.333 17.8064L132.453 18.489ZM132.85 25.0926C132.428 27.6444 131.557 29.855 130.252 31.744L131.897 32.881C133.388 30.7246 134.358 28.2306 134.823 25.4187L132.85 25.0926ZM130.254 31.7418C128.947 33.6223 127.296 35.0818 125.293 36.1312L126.221 37.9029C128.513 36.7023 130.407 35.0254 131.896 32.8832L130.254 31.7418ZM125.293 36.1312C123.306 37.172 121.025 37.7045 118.427 37.7045V39.7045C121.306 39.7045 123.912 39.1121 126.221 37.9029L125.293 36.1312ZM119.365 33.4148C120.604 33.4148 121.732 33.0376 122.714 32.2903L121.504 30.6984C120.872 31.1784 120.171 31.4148 119.365 31.4148V33.4148ZM122.709 32.2943C123.673 31.5712 124.452 30.5828 125.064 29.3713L123.279 28.4696C122.777 29.4626 122.181 30.1902 121.509 30.6943L122.709 32.2943ZM125.064 29.3713C125.675 28.1625 126.099 26.7834 126.351 25.2471L124.378 24.9233C124.153 26.2962 123.782 27.4739 123.279 28.4696L125.064 29.3713ZM126.351 25.2496C126.603 23.7394 126.636 22.364 126.417 21.142L124.448 21.4943C124.616 22.4315 124.604 23.5675 124.378 24.9208L126.351 25.2496ZM126.419 21.1538C126.214 19.9228 125.761 18.8662 124.987 18.0781L123.56 19.4787C123.968 19.8951 124.288 20.5317 124.446 21.4826L126.419 21.1538ZM124.994 18.0848C124.18 17.239 123.098 16.858 121.87 16.858V18.858C122.665 18.858 123.186 19.0905 123.553 19.472L124.994 18.0848ZM121.87 16.858C120.627 16.858 119.493 17.2436 118.502 18.0008L119.716 19.5901C120.361 19.0973 121.068 18.858 121.87 18.858V16.858ZM118.509 17.9955C117.545 18.7186 116.766 19.707 116.154 20.9184L117.939 21.8202C118.441 20.8271 119.037 20.0996 119.709 19.5955L118.509 17.9955ZM116.152 20.9221C115.553 22.1205 115.135 23.4992 114.883 25.0439L116.857 25.3652C117.083 23.9781 117.449 22.8 117.941 21.8165L116.152 20.9221ZM114.884 25.0401C114.633 26.5479 114.594 27.9196 114.799 29.1377L116.771 28.8055C116.613 27.8644 116.631 26.7248 116.857 25.3689L114.884 25.0401ZM114.799 29.1377C115.005 30.3639 115.467 31.4167 116.247 32.2118L117.675 30.8109C117.251 30.3787 116.928 29.7384 116.771 28.8055L114.799 29.1377ZM116.254 32.2185C117.076 33.0407 118.149 33.4148 119.365 33.4148V31.4148C118.58 31.4148 118.051 31.1865 117.668 30.8043L116.254 32.2185ZM144.87 23.114L142.381 38.0458L144.354 38.3746L146.843 23.4428L144.87 23.114ZM143.368 37.2102H135.032V39.2102H143.368V37.2102ZM136.019 38.3746L140.382 12.1928L138.41 11.864L134.046 38.0458L136.019 38.3746ZM139.396 13.0284H147.322V11.0284H139.396V13.0284ZM146.335 11.8674L145.551 16.6742L147.525 16.9962L148.309 12.1894L146.335 11.8674ZM146.538 17.8352H146.828V15.8352H146.538V17.8352ZM147.718 17.29C148.449 15.8585 149.503 14.7445 150.895 13.9317L149.886 12.2046C148.164 13.21 146.843 14.6074 145.937 16.3805L147.718 17.29ZM150.899 13.929C152.291 13.1064 153.862 12.6875 155.64 12.6875V10.6875C153.532 10.6875 151.604 11.189 149.881 12.2074L150.899 13.929ZM155.64 12.6875C157.32 12.6875 158.643 13.0619 159.671 13.7468L160.78 12.0827C159.353 11.1313 157.62 10.6875 155.64 10.6875V12.6875ZM159.671 13.7468C160.705 14.4363 161.444 15.401 161.889 16.6851L163.779 16.0308C163.2 14.3603 162.201 13.0296 160.78 12.0827L159.671 13.7468ZM161.889 16.6873C162.331 17.9529 162.424 19.4952 162.104 21.3528L164.075 21.6926C164.436 19.5957 164.359 17.6949 163.778 16.0286L161.889 16.6873ZM162.103 21.3575L159.307 38.045L161.28 38.3754L164.075 21.6879L162.103 21.3575ZM160.294 37.2102H151.959V39.2102H160.294V37.2102ZM152.945 38.3744L155.451 23.3233L153.478 22.9949L150.972 38.046L152.945 38.3744ZM155.45 23.3298C155.725 21.7379 155.565 20.2934 154.741 19.1742L153.13 20.3599C153.511 20.877 153.703 21.6939 153.479 22.9884L155.45 23.3298ZM154.75 19.1869C153.915 18.0139 152.59 17.5227 151.038 17.5227V19.5227C152.168 19.5227 152.775 19.8611 153.121 20.3472L154.75 19.1869ZM151.038 17.5227C150.01 17.5227 149.046 17.7512 148.165 18.2192L149.104 19.9854C149.678 19.6806 150.316 19.5227 151.038 19.5227V17.5227ZM148.171 18.2164C147.303 18.6709 146.581 19.3228 146.006 20.1517L147.65 21.2915C148.052 20.7113 148.534 20.2836 149.099 19.9881L148.171 18.2164ZM146 20.1607C145.429 21.004 145.06 21.9963 144.87 23.1104L146.842 23.4464C146.993 22.5605 147.272 21.8483 147.656 21.2824L146 20.1607ZM177.534 37.2102H164.443V39.2102H177.534V37.2102ZM165.43 38.374L171.225 3.46491L169.252 3.13736L163.457 38.0465L165.43 38.374ZM170.239 4.30114H182.937V2.30114H170.239V4.30114ZM182.937 4.30114C186.35 4.30114 189.112 4.99542 191.28 6.31939L192.322 4.61242C189.763 3.05003 186.616 2.30114 182.937 2.30114V4.30114ZM191.285 6.32231C193.458 7.63248 194.988 9.50478 195.89 11.9787L197.769 11.294C196.716 8.40431 194.894 6.16297 192.317 4.6095L191.285 6.32231ZM195.892 11.9835C196.804 14.4473 196.999 17.444 196.406 21.0179L198.378 21.3457C199.012 17.5333 198.832 14.1664 197.767 11.2892L195.892 11.9835ZM196.405 21.0184C195.835 24.463 194.696 27.374 193.011 29.7783L194.648 30.9262C196.531 28.2397 197.767 25.037 198.379 21.3452L196.405 21.0184ZM193.009 29.7808C191.333 32.1871 189.192 34.023 186.573 35.3001L187.45 37.0977C190.377 35.6702 192.781 33.6083 194.65 30.9238L193.009 29.7808ZM186.576 35.2986C183.958 36.5646 180.951 37.2102 177.534 37.2102V39.2102C181.207 39.2102 184.519 38.5149 187.447 37.0991L186.576 35.2986ZM174.057 32.017H178.062V30.017H174.057V32.017ZM178.062 32.017C180.138 32.017 182.015 31.6426 183.669 30.8654L182.819 29.0551C181.474 29.6869 179.896 30.017 178.062 30.017V32.017ZM183.672 30.864C185.374 30.0581 186.762 28.7782 187.84 27.0674L186.148 26.0008C185.25 27.4263 184.138 28.4305 182.816 29.0565L183.672 30.864ZM187.842 27.0646C188.923 25.3374 189.661 23.1249 190.095 20.4741L188.121 20.1509C187.714 22.6364 187.043 24.5717 186.147 26.0035L187.842 27.0646ZM190.094 20.4769C190.514 17.9589 190.523 15.8405 190.011 14.2022L188.102 14.7978C188.477 16.0004 188.52 17.757 188.122 20.1481L190.094 20.4769ZM190.014 14.2113C189.509 12.5355 188.494 11.28 186.975 10.5341L186.093 12.3295C187.074 12.8109 187.741 13.6008 188.099 14.7887L190.014 14.2113ZM186.985 10.539C185.558 9.81939 183.768 9.49432 181.676 9.49432V11.4943C183.584 11.4943 185.032 11.7942 186.084 12.3246L186.985 10.539ZM181.676 9.49432H177.483V11.4943H181.676V9.49432ZM176.497 10.3297L173.07 30.8524L175.043 31.1817L178.469 10.659L176.497 10.3297ZM210.716 37.7045C208.105 37.7045 206.023 37.1898 204.411 36.2268L203.385 37.9437C205.387 39.1398 207.85 39.7045 210.716 39.7045V37.7045ZM204.417 36.2306C202.82 35.2605 201.705 33.8928 201.054 32.0918L199.173 32.7719C199.977 34.9936 201.384 36.7282 203.379 37.9398L204.417 36.2306ZM201.055 32.0935C200.401 30.2746 200.262 28.0531 200.708 25.3866L198.735 25.0565C198.25 27.9582 198.372 30.5435 199.173 32.7702L201.055 32.0935ZM200.708 25.3873C201.141 22.8106 202.018 20.588 203.323 18.6992L201.677 17.5622C200.187 19.7188 199.212 22.2235 198.736 25.0558L200.708 25.3873ZM203.322 18.7001C204.642 16.7949 206.294 15.325 208.284 14.2769L207.352 12.5072C205.07 13.7091 203.176 15.3983 201.678 17.5612L203.322 18.7001ZM208.288 14.2749C210.268 13.2219 212.485 12.6875 214.96 12.6875V10.6875C212.186 10.6875 209.642 11.2895 207.349 12.5092L208.288 14.2749ZM214.96 12.6875C216.721 12.6875 218.244 12.9612 219.548 13.4848L220.293 11.6288C218.711 10.9933 216.927 10.6875 214.96 10.6875V12.6875ZM219.548 13.4848C220.843 14.0048 221.896 14.7708 222.728 15.7826L224.273 14.5128C223.218 13.2292 221.885 12.2679 220.293 11.6288L219.548 13.4848ZM222.731 15.7864C223.555 16.7789 224.134 18.0201 224.447 19.5422L226.406 19.1396C226.037 17.3435 225.332 15.7892 224.27 14.5091L222.731 15.7864ZM224.447 19.5422C224.757 21.0508 224.755 22.8252 224.406 24.8842L226.378 25.2181C226.757 22.9816 226.778 20.9492 226.406 19.1396L224.447 19.5422ZM224.404 24.8973L224.08 26.9768L226.056 27.2846L226.38 25.205L224.404 24.8973ZM225.068 26.1307H202.33V28.1307H225.068V26.1307ZM203.317 27.2872L204.084 22.4463L202.109 22.1333L201.342 26.9742L203.317 27.2872ZM203.097 23.2898H218.097V21.2898H203.097V23.2898ZM219.085 22.4418C219.244 21.4115 219.166 20.4329 218.8 19.5412L216.95 20.2997C217.153 20.7943 217.223 21.3953 217.108 22.1377L219.085 22.4418ZM218.8 19.5412C218.436 18.6515 217.834 17.9445 217.013 17.4463L215.976 19.1559C216.428 19.4305 216.746 19.803 216.95 20.2997L218.8 19.5412ZM217.031 17.4575C216.213 16.9366 215.249 16.7045 214.193 16.7045V18.7045C214.956 18.7045 215.526 18.8702 215.958 19.1448L217.031 17.4575ZM214.193 16.7045C213.109 16.7045 212.083 16.9606 211.131 17.4706L212.074 19.2339C212.735 18.8803 213.437 18.7045 214.193 18.7045V16.7045ZM211.135 17.4682C210.213 17.9554 209.428 18.616 208.785 19.4429L210.363 20.6708C210.834 20.0658 211.401 19.5901 212.07 19.2364L211.135 17.4682ZM208.785 19.4429C208.13 20.2849 207.7 21.2385 207.501 22.2907L209.466 22.6638C209.607 21.9206 209.905 21.2605 210.363 20.6708L208.785 19.4429ZM207.499 22.2981L206.596 27.2583L208.564 27.6167L209.467 22.6565L207.499 22.2981ZM206.593 27.2747C206.392 28.4908 206.434 29.617 206.793 30.6077L208.673 29.9264C208.464 29.3489 208.403 28.5888 208.566 27.6002L206.593 27.2747ZM206.793 30.6077C207.152 31.5996 207.786 32.3865 208.68 32.9289L209.718 31.2189C209.226 30.9204 208.882 30.5026 208.673 29.9264L206.793 30.6077ZM208.691 32.9351C209.583 33.4618 210.667 33.6875 211.875 33.6875V31.6875C210.902 31.6875 210.201 31.5041 209.707 31.2127L208.691 32.9351ZM211.875 33.6875C212.692 33.6875 213.472 33.5789 214.211 33.3546L213.63 31.4408C213.096 31.6029 212.513 31.6875 211.875 31.6875V33.6875ZM214.227 33.3498C214.972 33.11 215.649 32.7532 216.248 32.2769L215.003 30.7117C214.601 31.0309 214.141 31.2763 213.615 31.4457L214.227 33.3498ZM216.25 32.2752C216.865 31.783 217.365 31.1865 217.746 30.4926L215.993 29.5301C215.738 29.9953 215.408 30.3875 215 30.7134L216.25 32.2752ZM216.84 31.0109L224.443 31.2325L224.501 29.2334L216.899 29.0118L216.84 31.0109ZM223.53 29.8962C222.966 31.4726 222.098 32.839 220.921 34.0057L222.329 35.4262C223.72 34.0474 224.75 32.4251 225.413 30.5697L223.53 29.8962ZM220.924 34.0025C219.748 35.1577 218.301 36.0697 216.565 36.7301L217.276 38.5994C219.244 37.8508 220.934 36.7969 222.326 35.4293L220.924 34.0025ZM216.568 36.7289C214.857 37.3732 212.911 37.7045 210.716 37.7045V39.7045C213.112 39.7045 215.302 39.3427 217.273 38.6006L216.568 36.7289ZM254.675 11.5742L241.328 37.7561L243.11 38.6644L256.457 12.4826L254.675 11.5742ZM242.219 37.2102H232.674V39.2102H242.219V37.2102ZM233.659 38.0371L229.056 11.8553L227.087 12.2015L231.689 38.3834L233.659 38.0371ZM228.071 13.0284H236.543V11.0284H228.071V13.0284ZM235.548 12.13L237.389 30.1641L239.379 29.9609L237.538 11.9269L235.548 12.13ZM238.384 31.0625H238.657V29.0625H238.384V31.0625ZM239.574 30.4605L247.398 12.4264L245.563 11.6304L237.739 29.6645L239.574 30.4605ZM246.481 13.0284H255.566V11.0284H246.481V13.0284Z" fill="black" mask="url(#path-1-outside-1_6_7061)"/>
</g>
<defs>
<filter id="filter0_d_6_7061" x="0.820312" y="0" width="260.378" height="47.7045" filterUnits="userSpaceOnUse" color-interpolation-filters="sRGB">
<feFlood flood-opacity="0" result="BackgroundImageFix"/>
<feColorMatrix in="SourceAlpha" type="matrix" values="0 0 0 0 0 0 0 0 0 0 0 0 0 0 0 0 0 0 127 0" result="hardAlpha"/>
<feOffset dy="4"/>
<feGaussianBlur stdDeviation="2"/>
<feComposite in2="hardAlpha" operator="out"/>
<feColorMatrix type="matrix" values="0 0 0 0 0 0 0 0 0 0 0 0 0 0 0 0 0 0 0.25 0"/>
<feBlend mode="normal" in2="BackgroundImageFix" result="effect1_dropShadow_6_7061"/>
<feBlend mode="normal" in="SourceGraphic" in2="effect1_dropShadow_6_7061" result="shape"/>
</filter>
</defs>
</svg>
