<svg width="69" height="13" viewBox="0 0 69 13" fill="none" xmlns="http://www.w3.org/2000/svg">
<path d="M5.58594 2.14062L2.1875 12H0.132812L4.41406 0.625H5.72656L5.58594 2.14062ZM8.42969 12L5.02344 2.14062L4.875 0.625H6.19531L10.4922 12H8.42969ZM8.26562 7.78125V9.33594H2.07812V7.78125H8.26562ZM15.1812 10.6562C15.4885 10.6562 15.7646 10.5964 16.0094 10.4766C16.2594 10.3516 16.4599 10.1797 16.6109 9.96094C16.7672 9.74219 16.8531 9.48958 16.8687 9.20312H18.6422C18.6318 9.75 18.4703 10.2474 18.1578 10.6953C17.8453 11.1432 17.4312 11.5 16.9156 11.7656C16.4 12.026 15.8297 12.1562 15.2047 12.1562C14.5589 12.1562 13.9964 12.0469 13.5172 11.8281C13.038 11.6042 12.6396 11.2969 12.3219 10.9062C12.0042 10.5156 11.7646 10.0651 11.6031 9.55469C11.4469 9.04427 11.3687 8.4974 11.3687 7.91406V7.64062C11.3687 7.05729 11.4469 6.51042 11.6031 6C11.7646 5.48438 12.0042 5.03125 12.3219 4.64062C12.6396 4.25 13.038 3.94531 13.5172 3.72656C13.9964 3.5026 14.5562 3.39062 15.1969 3.39062C15.874 3.39062 16.4677 3.52604 16.9781 3.79688C17.4885 4.0625 17.8896 4.4349 18.1812 4.91406C18.4781 5.38802 18.6318 5.9401 18.6422 6.57031H16.8687C16.8531 6.25781 16.775 5.97656 16.6344 5.72656C16.499 5.47135 16.3062 5.26823 16.0562 5.11719C15.8115 4.96615 15.5172 4.89062 15.1734 4.89062C14.7932 4.89062 14.4781 4.96875 14.2281 5.125C13.9781 5.27604 13.7828 5.48438 13.6422 5.75C13.5016 6.01042 13.4 6.30469 13.3375 6.63281C13.2802 6.95573 13.2516 7.29167 13.2516 7.64062V7.91406C13.2516 8.26302 13.2802 8.60156 13.3375 8.92969C13.3948 9.25781 13.4937 9.55208 13.6344 9.8125C13.7802 10.0677 13.9781 10.2734 14.2281 10.4297C14.4781 10.5807 14.7958 10.6562 15.1812 10.6562ZM23.6906 10.6562C23.9979 10.6562 24.274 10.5964 24.5187 10.4766C24.7687 10.3516 24.9693 10.1797 25.1203 9.96094C25.2766 9.74219 25.3625 9.48958 25.3781 9.20312H27.1516C27.1411 9.75 26.9797 10.2474 26.6672 10.6953C26.3547 11.1432 25.9406 11.5 25.425 11.7656C24.9094 12.026 24.3391 12.1562 23.7141 12.1562C23.0682 12.1562 22.5057 12.0469 22.0266 11.8281C21.5474 11.6042 21.149 11.2969 20.8312 10.9062C20.5135 10.5156 20.274 10.0651 20.1125 9.55469C19.9562 9.04427 19.8781 8.4974 19.8781 7.91406V7.64062C19.8781 7.05729 19.9562 6.51042 20.1125 6C20.274 5.48438 20.5135 5.03125 20.8312 4.64062C21.149 4.25 21.5474 3.94531 22.0266 3.72656C22.5057 3.5026 23.0656 3.39062 23.7062 3.39062C24.3833 3.39062 24.9771 3.52604 25.4875 3.79688C25.9979 4.0625 26.399 4.4349 26.6906 4.91406C26.9875 5.38802 27.1411 5.9401 27.1516 6.57031H25.3781C25.3625 6.25781 25.2844 5.97656 25.1437 5.72656C25.0083 5.47135 24.8156 5.26823 24.5656 5.11719C24.3208 4.96615 24.0266 4.89062 23.6828 4.89062C23.3026 4.89062 22.9875 4.96875 22.7375 5.125C22.4875 5.27604 22.2922 5.48438 22.1516 5.75C22.0109 6.01042 21.9094 6.30469 21.8469 6.63281C21.7896 6.95573 21.7609 7.29167 21.7609 7.64062V7.91406C21.7609 8.26302 21.7896 8.60156 21.8469 8.92969C21.9042 9.25781 22.0031 9.55208 22.1437 9.8125C22.2896 10.0677 22.4875 10.2734 22.7375 10.4297C22.9875 10.5807 23.3052 10.6562 23.6906 10.6562ZM28.3875 7.86719V7.6875C28.3875 7.07812 28.476 6.51302 28.6531 5.99219C28.8302 5.46615 29.0854 5.01042 29.4188 4.625C29.7573 4.23438 30.1688 3.93229 30.6531 3.71875C31.1427 3.5 31.6948 3.39062 32.3094 3.39062C32.9292 3.39062 33.4813 3.5 33.9656 3.71875C34.4552 3.93229 34.8693 4.23438 35.2078 4.625C35.5464 5.01042 35.8042 5.46615 35.9813 5.99219C36.1583 6.51302 36.2469 7.07812 36.2469 7.6875V7.86719C36.2469 8.47656 36.1583 9.04167 35.9813 9.5625C35.8042 10.0833 35.5464 10.5391 35.2078 10.9297C34.8693 11.3151 34.4578 11.6172 33.9734 11.8359C33.4891 12.0495 32.9396 12.1562 32.325 12.1562C31.7052 12.1562 31.1505 12.0495 30.6609 11.8359C30.1766 11.6172 29.7651 11.3151 29.4266 10.9297C29.088 10.5391 28.8302 10.0833 28.6531 9.5625C28.476 9.04167 28.3875 8.47656 28.3875 7.86719ZM30.2703 7.6875V7.86719C30.2703 8.2474 30.3094 8.60677 30.3875 8.94531C30.4656 9.28385 30.588 9.58073 30.7547 9.83594C30.9214 10.0911 31.1349 10.2917 31.3953 10.4375C31.6557 10.5833 31.9656 10.6562 32.325 10.6562C32.674 10.6562 32.976 10.5833 33.2313 10.4375C33.4917 10.2917 33.7052 10.0911 33.8719 9.83594C34.0385 9.58073 34.1609 9.28385 34.2391 8.94531C34.3224 8.60677 34.3641 8.2474 34.3641 7.86719V7.6875C34.3641 7.3125 34.3224 6.95833 34.2391 6.625C34.1609 6.28646 34.0359 5.98698 33.8641 5.72656C33.6974 5.46615 33.4839 5.26302 33.2234 5.11719C32.9682 4.96615 32.6635 4.89062 32.3094 4.89062C31.9552 4.89062 31.6479 4.96615 31.3875 5.11719C31.1323 5.26302 30.9214 5.46615 30.7547 5.72656C30.588 5.98698 30.4656 6.28646 30.3875 6.625C30.3094 6.95833 30.2703 7.3125 30.2703 7.6875ZM43.0609 10.0078V3.54688H44.9516V12H43.1703L43.0609 10.0078ZM43.3266 8.25L43.9594 8.23438C43.9594 8.80208 43.8969 9.32552 43.7719 9.80469C43.6469 10.2786 43.4542 10.6927 43.1937 11.0469C42.9333 11.3958 42.6 11.6693 42.1937 11.8672C41.7875 12.0599 41.3005 12.1562 40.7328 12.1562C40.3214 12.1562 39.9437 12.0964 39.6 11.9766C39.2562 11.8568 38.9594 11.6719 38.7094 11.4219C38.4646 11.1719 38.2745 10.8464 38.1391 10.4453C38.0036 10.0443 37.9359 9.5651 37.9359 9.00781V3.54688H39.8187V9.02344C39.8187 9.33073 39.8552 9.58854 39.9281 9.79688C40.001 10 40.1 10.1641 40.225 10.2891C40.35 10.4141 40.4958 10.5026 40.6625 10.5547C40.8292 10.6068 41.0062 10.6328 41.1937 10.6328C41.7302 10.6328 42.1521 10.5286 42.4594 10.3203C42.7719 10.1068 42.9932 9.82031 43.1234 9.46094C43.2589 9.10156 43.3266 8.69792 43.3266 8.25ZM48.8984 5.35156V12H47.0156V3.54688H48.7891L48.8984 5.35156ZM48.5625 7.46094L47.9531 7.45312C47.9583 6.85417 48.0417 6.30469 48.2031 5.80469C48.3698 5.30469 48.599 4.875 48.8906 4.51562C49.1875 4.15625 49.5417 3.88021 49.9531 3.6875C50.3646 3.48958 50.8229 3.39062 51.3281 3.39062C51.7344 3.39062 52.1016 3.44792 52.4297 3.5625C52.763 3.67188 53.0469 3.85156 53.2812 4.10156C53.5208 4.35156 53.7031 4.67708 53.8281 5.07812C53.9531 5.47396 54.0156 5.96094 54.0156 6.53906V12H52.125V6.53125C52.125 6.125 52.0651 5.80469 51.9453 5.57031C51.8307 5.33073 51.6615 5.16146 51.4375 5.0625C51.2188 4.95833 50.9453 4.90625 50.6172 4.90625C50.2943 4.90625 50.0052 4.97396 49.75 5.10938C49.4948 5.24479 49.2786 5.42969 49.1016 5.66406C48.9297 5.89844 48.7969 6.16927 48.7031 6.47656C48.6094 6.78385 48.5625 7.11198 48.5625 7.46094ZM59.9625 3.54688V4.92188H55.1969V3.54688H59.9625ZM56.5719 1.47656H58.4547V9.66406C58.4547 9.92448 58.4911 10.125 58.5641 10.2656C58.6422 10.401 58.749 10.4922 58.8844 10.5391C59.0198 10.5859 59.1786 10.6094 59.3609 10.6094C59.4911 10.6094 59.6161 10.6016 59.7359 10.5859C59.8557 10.5703 59.9521 10.5547 60.025 10.5391L60.0328 11.9766C59.8766 12.0234 59.6943 12.0651 59.4859 12.1016C59.2828 12.138 59.0484 12.1562 58.7828 12.1562C58.3505 12.1562 57.9677 12.0807 57.6344 11.9297C57.301 11.7734 57.0406 11.5208 56.8531 11.1719C56.6656 10.8229 56.5719 10.3594 56.5719 9.78125V1.47656ZM66.3078 9.71094C66.3078 9.52344 66.2609 9.35417 66.1672 9.20312C66.0734 9.04688 65.8937 8.90625 65.6281 8.78125C65.3677 8.65625 64.9823 8.54167 64.4719 8.4375C64.024 8.33854 63.6125 8.22135 63.2375 8.08594C62.8677 7.94531 62.55 7.77604 62.2844 7.57812C62.0187 7.38021 61.813 7.14583 61.6672 6.875C61.5214 6.60417 61.4484 6.29167 61.4484 5.9375C61.4484 5.59375 61.524 5.26823 61.675 4.96094C61.826 4.65365 62.0422 4.38281 62.3234 4.14844C62.6047 3.91406 62.9458 3.72917 63.3469 3.59375C63.7531 3.45833 64.2062 3.39062 64.7062 3.39062C65.4146 3.39062 66.0214 3.51042 66.5266 3.75C67.037 3.98438 67.4276 4.30469 67.6984 4.71094C67.9693 5.11198 68.1047 5.5651 68.1047 6.07031H66.2219C66.2219 5.84635 66.1646 5.63802 66.05 5.44531C65.9406 5.2474 65.774 5.08854 65.55 4.96875C65.326 4.84375 65.0448 4.78125 64.7062 4.78125C64.3833 4.78125 64.1151 4.83333 63.9016 4.9375C63.6932 5.03646 63.537 5.16667 63.4328 5.32812C63.3339 5.48958 63.2844 5.66667 63.2844 5.85938C63.2844 6 63.3104 6.1276 63.3625 6.24219C63.4198 6.35156 63.5135 6.45312 63.6437 6.54688C63.774 6.63542 63.951 6.71875 64.175 6.79688C64.4042 6.875 64.6906 6.95052 65.0344 7.02344C65.6802 7.15885 66.2349 7.33333 66.6984 7.54688C67.1672 7.75521 67.5266 8.02604 67.7766 8.35938C68.0266 8.6875 68.1516 9.10417 68.1516 9.60938C68.1516 9.98438 68.0708 10.3281 67.9094 10.6406C67.7531 10.9479 67.524 11.2161 67.2219 11.4453C66.9198 11.6693 66.5578 11.8438 66.1359 11.9688C65.7193 12.0938 65.2505 12.1562 64.7297 12.1562C63.9641 12.1562 63.3156 12.0208 62.7844 11.75C62.2531 11.474 61.8495 11.1224 61.5734 10.6953C61.3026 10.263 61.1672 9.8151 61.1672 9.35156H62.9875C63.0083 9.70052 63.1047 9.97917 63.2766 10.1875C63.4536 10.3906 63.6724 10.5391 63.9328 10.6328C64.1984 10.7214 64.4719 10.7656 64.7531 10.7656C65.0917 10.7656 65.3755 10.7214 65.6047 10.6328C65.8339 10.5391 66.0083 10.4141 66.1281 10.2578C66.2479 10.0964 66.3078 9.91406 66.3078 9.71094Z" fill="white"/>
</svg>
