<svg width="121" height="37" viewBox="0 0 121 37" fill="none" xmlns="http://www.w3.org/2000/svg">
<path d="M28 18.5C30.21 18.5 32 16.71 32 14.5C32 12.29 30.21 10.5 28 10.5C25.79 10.5 24 12.29 24 14.5C24 16.71 25.79 18.5 28 18.5ZM28 20.5C25.33 20.5 20 21.84 20 24.5V26.5H36V24.5C36 21.84 30.67 20.5 28 20.5Z" fill="white"/>
<path d="M57.5156 19.0391H54.4766V17.8125H57.5156C58.1042 17.8125 58.5807 17.7188 58.9453 17.5312C59.3099 17.3438 59.5755 17.0833 59.7422 16.75C59.9141 16.4167 60 16.0365 60 15.6094C60 15.2188 59.9141 14.8516 59.7422 14.5078C59.5755 14.1641 59.3099 13.888 58.9453 13.6797C58.5807 13.4661 58.1042 13.3594 57.5156 13.3594H54.8281V23.5H53.3203V12.125H57.5156C58.375 12.125 59.1016 12.2734 59.6953 12.5703C60.2891 12.8672 60.7396 13.2786 61.0469 13.8047C61.3542 14.3255 61.5078 14.9219 61.5078 15.5938C61.5078 16.3229 61.3542 16.9453 61.0469 17.4609C60.7396 17.9766 60.2891 18.3698 59.6953 18.6406C59.1016 18.9062 58.375 19.0391 57.5156 19.0391ZM64.7906 16.375V23.5H63.3453V15.0469H64.7516L64.7906 16.375ZM67.4312 15L67.4234 16.3438C67.3036 16.3177 67.1891 16.3021 67.0797 16.2969C66.9755 16.2865 66.8557 16.2812 66.7203 16.2812C66.387 16.2812 66.0927 16.3333 65.8375 16.4375C65.5823 16.5417 65.3661 16.6875 65.1891 16.875C65.012 17.0625 64.8714 17.2865 64.7672 17.5469C64.6682 17.8021 64.6031 18.0833 64.5719 18.3906L64.1656 18.625C64.1656 18.1146 64.2151 17.6354 64.3141 17.1875C64.4182 16.7396 64.5771 16.3438 64.7906 16C65.0042 15.651 65.275 15.3802 65.6031 15.1875C65.9365 14.9896 66.3323 14.8906 66.7906 14.8906C66.8948 14.8906 67.0146 14.9036 67.15 14.9297C67.2854 14.9505 67.3792 14.974 67.4312 15ZM68.3781 19.3672V19.1875C68.3781 18.5781 68.4667 18.013 68.6438 17.4922C68.8208 16.9661 69.076 16.5104 69.4094 16.125C69.7427 15.7344 70.1464 15.4323 70.6203 15.2188C71.0943 15 71.6255 14.8906 72.2141 14.8906C72.8078 14.8906 73.3417 15 73.8156 15.2188C74.2948 15.4323 74.701 15.7344 75.0344 16.125C75.3729 16.5104 75.6307 16.9661 75.8078 17.4922C75.9849 18.013 76.0734 18.5781 76.0734 19.1875V19.3672C76.0734 19.9766 75.9849 20.5417 75.8078 21.0625C75.6307 21.5833 75.3729 22.0391 75.0344 22.4297C74.701 22.8151 74.2974 23.1172 73.8234 23.3359C73.3547 23.5495 72.8234 23.6562 72.2297 23.6562C71.6359 23.6562 71.1021 23.5495 70.6281 23.3359C70.1542 23.1172 69.7479 22.8151 69.4094 22.4297C69.076 22.0391 68.8208 21.5833 68.6438 21.0625C68.4667 20.5417 68.3781 19.9766 68.3781 19.3672ZM69.8234 19.1875V19.3672C69.8234 19.7891 69.8729 20.1875 69.9719 20.5625C70.0708 20.9323 70.2193 21.2604 70.4172 21.5469C70.6203 21.8333 70.8729 22.0599 71.175 22.2266C71.4771 22.388 71.8286 22.4688 72.2297 22.4688C72.6255 22.4688 72.9719 22.388 73.2688 22.2266C73.5708 22.0599 73.8208 21.8333 74.0188 21.5469C74.2167 21.2604 74.3651 20.9323 74.4641 20.5625C74.5682 20.1875 74.6203 19.7891 74.6203 19.3672V19.1875C74.6203 18.7708 74.5682 18.3776 74.4641 18.0078C74.3651 17.6328 74.2141 17.3021 74.0109 17.0156C73.813 16.724 73.563 16.4948 73.2609 16.3281C72.9641 16.1615 72.6151 16.0781 72.2141 16.0781C71.8182 16.0781 71.4693 16.1615 71.1672 16.3281C70.8703 16.4948 70.6203 16.724 70.4172 17.0156C70.2193 17.3021 70.0708 17.6328 69.9719 18.0078C69.8729 18.3776 69.8234 18.7708 69.8234 19.1875ZM80.1922 23.5H78.7469V14.1562C78.7469 13.5469 78.8563 13.0339 79.075 12.6172C79.299 12.1953 79.6193 11.8776 80.0359 11.6641C80.4526 11.4453 80.9474 11.3359 81.5203 11.3359C81.687 11.3359 81.8536 11.3464 82.0203 11.3672C82.1922 11.388 82.3589 11.4193 82.5203 11.4609L82.4422 12.6406C82.3328 12.6146 82.2078 12.5964 82.0672 12.5859C81.9318 12.5755 81.7964 12.5703 81.6609 12.5703C81.3536 12.5703 81.088 12.6328 80.8641 12.7578C80.6453 12.8776 80.4786 13.0547 80.3641 13.2891C80.2495 13.5234 80.1922 13.8125 80.1922 14.1562V23.5ZM81.9891 15.0469V16.1562H77.4109V15.0469H81.9891ZM85.3188 15.0469V23.5H83.8656V15.0469H85.3188ZM83.7563 12.8047C83.7563 12.5703 83.8266 12.3724 83.9672 12.2109C84.113 12.0495 84.3266 11.9688 84.6078 11.9688C84.8839 11.9688 85.0948 12.0495 85.2406 12.2109C85.3917 12.3724 85.4672 12.5703 85.4672 12.8047C85.4672 13.0286 85.3917 13.2214 85.2406 13.3828C85.0948 13.5391 84.8839 13.6172 84.6078 13.6172C84.3266 13.6172 84.113 13.5391 83.9672 13.3828C83.8266 13.2214 83.7563 13.0286 83.7563 12.8047ZM89.3594 11.5V23.5H87.9062V11.5H89.3594ZM95.3375 23.6562C94.749 23.6562 94.2151 23.5573 93.7359 23.3594C93.262 23.1562 92.8531 22.8724 92.5094 22.5078C92.1708 22.1432 91.9104 21.7109 91.7281 21.2109C91.5458 20.7109 91.4547 20.1641 91.4547 19.5703V19.2422C91.4547 18.5547 91.5563 17.9427 91.7594 17.4062C91.9625 16.8646 92.2385 16.4062 92.5875 16.0312C92.9365 15.6562 93.3323 15.3724 93.775 15.1797C94.2177 14.987 94.676 14.8906 95.15 14.8906C95.7542 14.8906 96.275 14.9948 96.7125 15.2031C97.1552 15.4115 97.5172 15.7031 97.7984 16.0781C98.0797 16.4479 98.288 16.8854 98.4234 17.3906C98.5589 17.8906 98.6266 18.4375 98.6266 19.0312V19.6797H92.3141V18.5H97.1813V18.3906C97.1604 18.0156 97.0823 17.651 96.9469 17.2969C96.8167 16.9427 96.6083 16.651 96.3219 16.4219C96.0354 16.1927 95.6448 16.0781 95.15 16.0781C94.8219 16.0781 94.5198 16.1484 94.2438 16.2891C93.9677 16.4245 93.7307 16.6276 93.5328 16.8984C93.3349 17.1693 93.1813 17.5 93.0719 17.8906C92.9625 18.2812 92.9078 18.7318 92.9078 19.2422V19.5703C92.9078 19.9714 92.9625 20.349 93.0719 20.7031C93.1865 21.0521 93.3505 21.3594 93.5641 21.625C93.7828 21.8906 94.0458 22.099 94.3531 22.25C94.6656 22.401 95.0198 22.4766 95.4156 22.4766C95.926 22.4766 96.3583 22.3724 96.7125 22.1641C97.0667 21.9557 97.3766 21.6771 97.6422 21.3281L98.5172 22.0234C98.3349 22.2995 98.1031 22.5625 97.8219 22.8125C97.5406 23.0625 97.1943 23.2656 96.7828 23.4219C96.3766 23.5781 95.8948 23.6562 95.3375 23.6562Z" fill="white"/>
</svg>
